<mxfile host="65bd71144e">
    <diagram id="QJED_UXDTrn-FozerpPS" name="Page-1">
        <mxGraphModel dx="2339" dy="722" grid="1" gridSize="10" guides="1" tooltips="1" connect="1" arrows="1" fold="1" page="1" pageScale="1" pageWidth="850" pageHeight="1100" math="0" shadow="0">
            <root>
                <mxCell id="0"/>
                <mxCell id="1" parent="0"/>
                <mxCell id="2" value="ID&lt;br&gt;&lt;br&gt;?" style="rounded=0;whiteSpace=wrap;html=1;" vertex="1" parent="1">
                    <mxGeometry x="750" y="360" width="120" height="130" as="geometry"/>
                </mxCell>
                <mxCell id="4" value="DA VINCI&lt;div&gt;&lt;font color=&quot;#000000&quot;&gt;&lt;br&gt;&lt;/font&gt;ID&lt;br&gt;&lt;br&gt;2&lt;/div&gt;" style="rounded=0;whiteSpace=wrap;html=1;" vertex="1" parent="1">
                    <mxGeometry x="-150" y="300" width="120" height="130" as="geometry"/>
                </mxCell>
                <mxCell id="5" value="ID&lt;br&gt;&lt;br&gt;3" style="rounded=0;whiteSpace=wrap;html=1;" vertex="1" parent="1">
                    <mxGeometry x="320" y="80" width="120" height="130" as="geometry"/>
                </mxCell>
                <mxCell id="6" value="ID&lt;br&gt;&lt;font style=&quot;font-size: 18px;&quot;&gt;&lt;br&gt;4&lt;/font&gt;" style="rounded=0;whiteSpace=wrap;html=1;" vertex="1" parent="1">
                    <mxGeometry x="460" y="80" width="120" height="130" as="geometry"/>
                </mxCell>
                <mxCell id="12" value="ID&lt;br&gt;&lt;br&gt;1" style="rounded=0;whiteSpace=wrap;html=1;" vertex="1" parent="1">
                    <mxGeometry x="40" y="80" width="120" height="130" as="geometry"/>
                </mxCell>
                <mxCell id="13" value="ID&lt;br&gt;&lt;font style=&quot;font-size: 18px;&quot;&gt;&lt;br&gt;?&lt;/font&gt;" style="rounded=0;whiteSpace=wrap;html=1;" vertex="1" parent="1">
                    <mxGeometry x="120" y="300" width="120" height="130" as="geometry"/>
                </mxCell>
                <mxCell id="15" style="edgeStyle=none;html=1;" edge="1" parent="1" source="14">
                    <mxGeometry relative="1" as="geometry">
                        <mxPoint x="180" y="593" as="targetPoint"/>
                    </mxGeometry>
                </mxCell>
                <mxCell id="14" value="opcion 1: id_book" style="text;html=1;align=center;verticalAlign=middle;resizable=0;points=[];autosize=1;strokeColor=none;fillColor=none;" vertex="1" parent="1">
                    <mxGeometry x="10" y="578" width="120" height="30" as="geometry"/>
                </mxCell>
                <mxCell id="16" value="book_1.png" style="text;html=1;align=center;verticalAlign=middle;resizable=0;points=[];autosize=1;strokeColor=none;fillColor=none;" vertex="1" parent="1">
                    <mxGeometry x="180" y="578" width="90" height="30" as="geometry"/>
                </mxCell>
                <mxCell id="18" style="edgeStyle=none;html=1;" edge="1" parent="1" source="17">
                    <mxGeometry relative="1" as="geometry">
                        <mxPoint x="190" y="633" as="targetPoint"/>
                    </mxGeometry>
                </mxCell>
                <mxCell id="17" value="opcion 2: book_title" style="text;html=1;align=center;verticalAlign=middle;resizable=0;points=[];autosize=1;strokeColor=none;fillColor=none;" vertex="1" parent="1">
                    <mxGeometry x="10" y="618" width="130" height="30" as="geometry"/>
                </mxCell>
                <mxCell id="19" value="book_El Codigo Da Vinci.png" style="text;html=1;align=center;verticalAlign=middle;resizable=0;points=[];autosize=1;strokeColor=none;fillColor=none;" vertex="1" parent="1">
                    <mxGeometry x="190" y="618" width="180" height="30" as="geometry"/>
                </mxCell>
                <mxCell id="21" style="edgeStyle=none;html=1;" edge="1" parent="1" source="20">
                    <mxGeometry relative="1" as="geometry">
                        <mxPoint x="200" y="673" as="targetPoint"/>
                    </mxGeometry>
                </mxCell>
                <mxCell id="20" value="opcion 3: id_book FIJO" style="text;html=1;align=center;verticalAlign=middle;resizable=0;points=[];autosize=1;strokeColor=none;fillColor=none;" vertex="1" parent="1">
                    <mxGeometry x="-5" y="658" width="150" height="30" as="geometry"/>
                </mxCell>
                <mxCell id="22" value="book_1" style="text;html=1;align=center;verticalAlign=middle;resizable=0;points=[];autosize=1;strokeColor=none;fillColor=none;" vertex="1" parent="1">
                    <mxGeometry x="210" y="658" width="60" height="30" as="geometry"/>
                </mxCell>
            </root>
        </mxGraphModel>
    </diagram>
</mxfile>